<svg xmlns="http://www.w3.org/2000/svg" width="328.722" height="92.031" viewBox="0 0 328.722 92.031">
  <defs>
    <style>
      .cls-1 {
        fill: #212121;
        fill-rule: evenodd;
      }
    </style>
  </defs>
  <path id="CSUF" class="cls-1" d="M836.95,349.292a47.932,47.932,0,0,0,5.76,23.68,41.272,41.272,0,0,0,16.064,16.192,46.62,46.62,0,0,0,23.36,5.824q16,0,27.392-8.384t15.232-22.976H900.694a19.432,19.432,0,0,1-7.616,8.576,21.407,21.407,0,0,1-11.2,2.944q-10.113,0-16.384-7.04t-6.272-18.816q0-11.775,6.272-18.816t16.384-7.04a21.425,21.425,0,0,1,11.2,2.944,19.453,19.453,0,0,1,7.616,8.576h24.064a40.574,40.574,0,0,0-15.232-23.04q-11.394-8.448-27.392-8.448a46.641,46.641,0,0,0-23.36,5.824,41.175,41.175,0,0,0-16.064,16.256,48.3,48.3,0,0,0-5.76,23.744h0Zm133.76,45.952a38.768,38.768,0,0,0,17.536-3.712,27.35,27.35,0,0,0,11.328-9.984,25.841,25.841,0,0,0,3.906-13.952q0-8.064-3.97-13.184A26.953,26.953,0,0,0,990.1,346.6a118.741,118.741,0,0,0-14.144-5.632,66.956,66.956,0,0,1-12.8-5.248,7.532,7.532,0,0,1-4.1-6.784,7.617,7.617,0,0,1,2.432-6.08,9.409,9.409,0,0,1,6.4-2.112,11.275,11.275,0,0,1,7.552,2.5,9.271,9.271,0,0,1,3.2,6.848h23.684q-0.645-12.672-9.732-19.776t-23.936-7.1q-14.592,0-23.68,7.1t-9.088,19.648q0,8.448,3.968,13.7a26.222,26.222,0,0,0,9.472,7.936,100.916,100.916,0,0,0,14.208,5.376,89.061,89.061,0,0,1,9.28,3.2,18.115,18.115,0,0,1,5.5,3.584,7.356,7.356,0,0,1,2.24,5.5,7.492,7.492,0,0,1-2.816,6.208,12.01,12.01,0,0,1-7.68,2.24,11.1,11.1,0,0,1-7.68-2.624,11.289,11.289,0,0,1-3.456-7.616h-23.3a25.861,25.861,0,0,0,4.928,15.1,28.769,28.769,0,0,0,12.48,9.472,46.2,46.2,0,0,0,17.664,3.2h0Zm45.82-90.752v53.632q0,12.033,4.87,20.416a30.964,30.964,0,0,0,13.24,12.544,42.2,42.2,0,0,0,19.01,4.16,43.307,43.307,0,0,0,19.27-4.224,32.815,32.815,0,0,0,13.76-12.544q5.115-8.319,5.12-20.352V304.492h-21.89v53.76q0,8.064-4.1,12.416t-11.77,4.352q-7.68,0-11.65-4.352t-3.97-12.416v-53.76h-21.89Zm90.62,0v89.856h21.89V358h27.39V340.972h-27.39V322.028h36.61V304.492h-58.5Z" transform="translate(-836.938 -303.219)"/>
</svg>
